<svg xmlns="http://www.w3.org/2000/svg" width="134.667" height="138.667" version="1.0" viewBox="0 0 101 104"><path d="m50 19.7-2.4 1.7 2.3.6c1.3.3 3.4 2.3 4.8 4.7l2.5 4.2-4.6 2.3c-2.5 1.2-4.6 2.7-4.6 3.4 0 .6 1.8 1.9 4.1 2.8l4 1.6-4.1 5.2c-2.3 2.9-3.7 5.4-3.1 5.6.6.2.9.8.5 1.3-.3.5 0 .8.8.7.7-.2 1.2.2 1.1.8-.5 2.8 3.9.4 7.2-3.9 2-2.6 3.8-4.7 4-4.7.2 0 1.3 1.6 2.5 3.5s2.7 3.5 3.3 3.5C69.9 53 82 76 82 78.9c0 1.2-.7 2.4-1.5 2.8-2 .7-4.8-1.8-8-7.2-1.3-2.3-4.1-5.7-6.1-7.4-2.9-2.6-4.3-3.1-7.2-2.9-3.4.3-3.7.6-4 3.5-.2 2.3.1 3.3 1 3.3 1.9 0 5.6 4.1 10.7 11.7C71.7 90 73.3 91 79.4 91c5.6 0 10.1-3.5 11.6-8.9 1.3-5.1.6-7-9.9-26.5C72.3 39.2 72 38.4 72 32.2v-6.5l-3.5.6c-1.9.3-3.5.2-3.5-.3s-1.4-2.5-3.1-4.5c-3.6-4-7.8-4.7-11.9-1.8zm-30.9 36c-6.3 10.8-7.3 17.1-3.3 21.5 1.6 1.9 3.7 2.5 2.7.8-.3-.5 2.1-6.2 5.4-12.7 3.3-6.4 5.7-12.1 5.5-12.5-.3-.5-1.8-1.5-3.4-2.3L23.1 49l-4 6.7z"/></svg>